<?xml version="1.0" encoding="UTF-8"?>
<svg height="128px" viewBox="0 0 128 128" width="128px" xmlns="http://www.w3.org/2000/svg" xmlns:xlink="http://www.w3.org/1999/xlink">
    <linearGradient id="a" gradientTransform="matrix(0.196428 0 0 0.342105 1.59729 274.740051)" gradientUnits="userSpaceOnUse" x1="88.595886" x2="536.595886" y1="-449.394012" y2="-449.394012">
        <stop offset="0" stop-color="#57e389"/>
        <stop offset="0.0500001" stop-color="#99f5b7"/>
        <stop offset="0.099807" stop-color="#57e389"/>
        <stop offset="0.900001" stop-color="#57e389"/>
        <stop offset="0.950001" stop-color="#99f5b7"/>
        <stop offset="1" stop-color="#57e389"/>
    </linearGradient>
    <path d="m 27 17 h 72 c 4.417969 0 8 3.582031 8 8 v 88 c 0 4.417969 -3.582031 8 -8 8 h -72 c -4.417969 0 -8 -3.582031 -8 -8 v -88 c 0 -4.417969 3.582031 -8 8 -8 z m 0 0" fill="url(#a)"/>
    <path d="m 27 9 h 72 c 4.417969 0 8 3.582031 8 8 v 92 c 0 4.417969 -3.582031 8 -8 8 h -72 c -4.417969 0 -8 -3.582031 -8 -8 v -92 c 0 -4.417969 3.582031 -8 8 -8 z m 0 0" fill="#26a269"/>
    <g fill="#00ff00">
        <path d="m 35.339844 23.496094 v 8.683594 h 50.300781 l 5.019531 -8.683594 z m 0 0"/>
        <path d="m 35.339844 58.65625 v 8.6875 h 50.300781 l 5.019531 -8.6875 z m 0 0"/>
        <path d="m 35.339844 93.820312 v 8.683594 h 50.300781 l 5.019531 -8.683594 z m 0 0"/>
    </g>
    <path d="m 35.339844 23.496094 v 8.683594 h 50.300781 l 5.019531 -8.683594 z m 0 0" fill="#8ff0a4"/>
    <path d="m 35.339844 58.65625 v 8.6875 h 50.300781 l 5.019531 -8.6875 z m 0 0" fill="#8ff0a4"/>
    <path d="m 35.339844 93.820312 v 8.683594 h 50.300781 l 5.019531 -8.683594 z m 0 0" fill="#8ff0a4"/>
    <path d="m 71.332031 27.839844 c 0 4.597656 -3.730469 8.328125 -8.332031 8.328125 s -8.332031 -3.730469 -8.332031 -8.328125 c 0 -4.601563 3.730469 -8.332032 8.332031 -8.332032 s 8.332031 3.730469 8.332031 8.332032 z m 0 0" fill="#f6f5f4"/>
    <path d="m 71.332031 25.707031 c 0 4.601563 -3.730469 8.332031 -8.332031 8.332031 s -8.332031 -3.730468 -8.332031 -8.332031 c 0 -4.601562 3.730469 -8.332031 8.332031 -8.332031 s 8.332031 3.730469 8.332031 8.332031 z m 0 0" fill="#deddda"/>
    <path d="m 52.835938 63 c 0 4.601562 -3.730469 8.332031 -8.332032 8.332031 c -4.601562 0 -8.332031 -3.730469 -8.332031 -8.332031 s 3.730469 -8.332031 8.332031 -8.332031 c 4.601563 0 8.332032 3.730469 8.332032 8.332031 z m 0 0" fill="#f6f5f4"/>
    <path d="m 52.835938 60.867188 c 0 4.601562 -3.730469 8.332031 -8.332032 8.332031 c -4.601562 0 -8.332031 -3.730469 -8.332031 -8.332031 c 0 -4.601563 3.730469 -8.332032 8.332031 -8.332032 c 4.601563 0 8.332032 3.730469 8.332032 8.332032 z m 0 0" fill="#deddda"/>
    <path d="m 83.496094 98.160156 c 0 4.601563 -3.730469 8.332032 -8.332032 8.332032 c -4.601562 0 -8.332031 -3.730469 -8.332031 -8.332032 c 0 -4.601562 3.730469 -8.328125 8.332031 -8.328125 c 4.601563 0 8.332032 3.726563 8.332032 8.328125 z m 0 0" fill="#f6f5f4"/>
    <path d="m 83.496094 96.03125 c 0 4.601562 -3.730469 8.332031 -8.332032 8.332031 c -4.601562 0 -8.332031 -3.730469 -8.332031 -8.332031 s 3.730469 -8.332031 8.332031 -8.332031 c 4.601563 0 8.332032 3.730469 8.332032 8.332031 z m 0 0" fill="#deddda"/>
</svg>
